<?xml version="1.0" encoding="utf-8"?>
<!-- Generator: Adobe Illustrator 23.0.0, SVG Export Plug-In . SVG Version: 6.00 Build 0)  -->
<svg version="1.1" id="Layer_1" xmlns="http://www.w3.org/2000/svg" xmlns:xlink="http://www.w3.org/1999/xlink" x="0px" y="0px"
	 viewBox="0 0 800 500" style="enable-background:new 0 0 800 500;" xml:space="preserve">
<style type="text/css">
	.st0{fill:#FFFFFF;}
</style>
<g>
	<path class="st0" d="M494.8,280.5c11.6,0,23.1,0,34.7,0c17.5,0,35-0.1,52.5-0.2c3.3,0,4.2,1.5,3.2,4.4c-1.6,4.5-2.8,9.3-5.1,13.4
		c-1.1,2-4.2,3.3-6.7,4.1c-17,6-34.4,11.3-51.2,17.9c-14.8,5.8-27.7,15.1-38.7,26.7c-0.7,0.8-1.4,1.6-2.1,2.5
		c-0.2,0.2-0.1,0.6-0.2,1.4c7.7,0.6,15.3,1.3,23,1.8c18.6,1,37.1,1.9,55.7,2.9c3.9,0.2,7.7,0.9,11.5,1.4
		c18.8,2.4,29.4,18.1,29.7,35.4c0.3,13.8-2.8,26.9-10.1,38.6c-15.9,25.3-37,43.6-67.5,48.7c-11.6,1.9-23.2,1.4-34.5-1.8
		c-22.4-6.4-33.1-22.7-36.7-44.5c-4.3-26.4,0-51.5,11.7-75.4c0.5-1,0.9-2,1.4-2.9c0.1-0.3,0.1-0.6,0.2-1c-1.2-1.1-2.4-2.3-3.6-3.5
		c-0.2-0.2-0.1-0.6-0.2-1c0.3-0.2,0.7-0.8,1-0.7c5.9,1.6,8.3-2.4,11.2-6.4c11.4-15.8,26.2-28,43.2-37.5c1.3-0.7,2.6-1.5,4.8-2.8
		c-25.1-0.7-49.2-1.4-74-2c3.3-11.1,4.2-21.8,16-26.6c26.1-10.6,52-21.6,78-32.4c3.4-1.4,6.9-2.6,10.3-4.7
		c-7.3-0.5-14.6-1.2-21.9-1.6c-16.1-1.1-32.2-2.1-48.2-3.1c-9.3-0.6-9.1-0.9-6.1-9.9c2.2-6.7,6.5-9.6,13-11.4
		c12.1-3.3,23.9-7.5,35.9-11.2c4.6-1.4,5.9-4,5.3-9.1c-3.2-29.7-5.8-59.5-8.8-89.3c-1.1-10.5,4.4-19.1,7.8-28.3
		c0.3-0.7,3.7-1.2,4.9-0.4c10.2,6.7,20.9,12.9,30.3,20.6c18.8,15.6,36.2,32.8,47.4,54.9c18.3,36.1,21.8,73.5,8.1,112
		c-3.7,10.5-10.3,19.4-17.9,27.4c-0.7,0.7-1.7,1.2-3.4,1.4c0.8-1.8,1.4-3.8,2.3-5.5c2.8-5.1,5.7-10.3,8.8-15.3
		c11.9-19.7,13.9-40.8,10.1-63.2c-4.9-28.6-19.8-51.4-39.1-71.9c-11.6-12.3-23.9-23.9-38.6-32.6c-2.1-1.2-4.3-2.2-7.6-3.9
		c0.5,6.2,0.9,11.3,1.3,16.4c1.4,18.7,3,37.4,4.2,56c1.1,16.8-2.9,32.3-13.8,46.4c10.7,0.7,20.8,1.4,30.9,2c15.9,1,31.9,2,47.8,2.9
		c3.7,0.2,4.8,1.6,3.2,5c-0.1,0.3-0.2,0.6-0.3,0.9c-2.2,9.8-7,16.7-18.2,16.7c-28.6,11-57.2,21.9-85.8,32.9
		c-2.9,1.1-5.7,2.4-8.5,3.6C494.7,279.2,494.8,279.9,494.8,280.5z M473.6,357.7c-11.4,19.9-18.6,40.1-15.2,62.9
		c3,19.7,14.6,31.6,33.7,36.2c12.3,3,24.8,3.8,37.3,0.8c24.9-5.8,45.3-18.8,60.4-39.6c6.2-8.5,7.4-17.5,1.5-26.8
		c-5.3-8.3-12.8-13.7-22.3-15.3c-9.3-1.5-18.7-2.5-28.1-2.7C517.5,372.9,494.7,370.6,473.6,357.7z"/>
	<path class="st0" d="M359.1,228.5c1.2-7,3.5-13.7,8.7-19c5.4-5.5,7.7-5.1,11.2,1.7c2,3.8,3.4,8.2,8.8,8.5c5.8,0.3,9.6-2.7,12.4-7.4
		c1.5-2.4,3.2-4.7,5.4-7.8c1.6,4.4-2.5,9.5,3.2,11.2c2.2,0.7,4.6,0.4,5.9,0.5c0.4-5.3,0.8-9.6,1.2-14.9c7.7,7.2,4.1,22.2-4.4,24.9
		c-5.1,1.6-7.8-1.5-10.4-4.6c-2.8,2.5-5.1,5.3-8,7c-6.3,3.8-12,2-15.7-4.3c-0.5-0.8-0.9-1.6-1.3-2.5c-3.3-6.7-4.3-6.8-9.5-1.2
		c-5.7,6.1-5,10.3,2.4,14.3c2.7,1.5,5.6,2.6,8.5,3.8c4.8,2,6.6,5.8,6.5,10.7c-0.1,7.6-4.3,13.8-11.3,16.5
		c-8.7,3.4-17.7,4.5-26.8,1.8c-0.7-0.2-1.6-0.5-2.2-0.3c-5.5,2-10.9,4.1-16.6,6.3c1,2,2,3.8,2.9,5.6c3.8,7.5,2.9,15.4-3.1,21.3
		c-9.9,9.8-20.8,18.2-34.2,22.5c-13.3,4.3-23.2-2.5-23.6-16.4c-0.5-14.5,2.2-28.1,13.2-38.8c1.6-1.6,2.9-3.6,4.3-5.5
		c0.3-0.5,0.4-1.1,1-2.6c-2.6,0.3-4.7,0.2-6.6,0.9c-11.2,4-22.4,8-33.5,12.3c-1,0.4-2,2.2-1.9,3.4c1,26.9,2,53.9,3.2,80.8
		c0.1,2.4,0.7,4.9,1.5,7.2c1.3,4,4.2,6,8.5,5.8c8.7-0.3,15.4-3.1,19.3-11.7c2.4-5.1,5.9-9.9,9.8-13.9c5.5-5.6,11.9-3.8,14.4,3.6
		c2.1,6,2.1,12.2-0.1,18.2c-1,2.8-2.9,4.6-6,3.6c-5.5-1.7-11-3.7-17.6-5.9c-0.9,6.7-2.8,14.1-2.8,21.4c0,8.7,8.6,14,18.4,11.9
		c12.3-2.6,21.8-10.1,30.8-18.3c2.6-2.4,5.1-5,7.2-7.9c0.8-1,0.7-2.9,0.4-4.3c-0.1-0.3-2.1-0.5-3.3-0.5c-3.7-0.1-7.4,0.2-11.1-0.3
		c-4.7-0.7-6.9-3.7-6.6-8.5c0.1-1.8,0.4-3.7,1.1-5.4c1.9-4.8,4.8-9,10.3-9.6c5-0.6,7.6,3.4,10.3,6.9c1.3,1.7,2.3,3.6,3.4,5.4
		c7.7-1.8,11.5-6.1,11-13.7c-1-15.7-2.7-31.5-3.8-47.2c-0.3-4.9,0.3-9.9,0.5-14.9c0.8,0,1.5-0.1,2.3-0.1c1.4,7.6,3.5,15.2,4.1,22.9
		c1.4,16.2,1.9,32.5,3,48.7c0.3,4.6,1.1,9.2,2.2,13.7c1,4.1,4,6.5,8.3,5.6c5.2-1,10.3-2.7,15.3-4.7c-5.3-6-10.9-9.7-19.3-6
		c1.7-6.9,3.9-11.7,11.2-13c9.9-1.8,19.6-3.2,29.4-0.4c2.2,0.6,4.5,1.4,6.4,2.6c1.9,1.3,5,3.9,4.7,4.8c-1.1,2.9-3.1,6-5.6,7.8
		c-2.9,2.1-6.7,3-10.3,4.4c8.9,8.3,25.7,5.1,31.1-5.3c2.5-4.8,5.3-9.4,8.6-13.7c2.4-3.2,5.9-5.9,10.4-4.9c4.8,1.1,6.6,5.4,6.9,9.5
		c0.4,5.1-0.3,10.4-1,15.5c-0.4,2.8-2.7,4.3-5.6,3.4c-5.7-1.7-11.3-3.7-17.1-5.7c-1.5,2.3-3.1,5.5-5.3,8.3
		c-7.4,9.2-19.9,11.8-28.9,4.4c-7.3-6.1-12.7-5.8-19.1,0.1c-1.1,1-2.7,1.6-4.1,2.1c-11.6,4.7-20.1-0.1-21.8-12.4
		c-0.6-4.4-0.8-8.8-1.2-12.4c-3.3,3.2-6.9,6.5-10.4,10c-0.9,0.9-1.3,2.3-1.6,3.6c-1.2,6.2-3.5,12-8.3,16.2
		c-7.9,6.9-15.9,13.7-24.4,19.8c-3.3,2.4-8,3.6-12.2,4c-11,1.2-18.7-5.4-19.2-16.5c-0.3-6.1,0.6-12.3,0.9-18.2
		c-1.6,1.3-3.5,3.1-5.6,4.5c-9.9,6.6-21.3,2.4-23.1-9.2c-1.7-11-2-22.2-2.5-33.3c-1-19-1.7-38.1-2.5-57.1c0-0.9-0.2-1.8-0.3-2.6
		c-8.4,1.1-16.6,2.3-24.8,3.2c-2.9,0.3-5.9,0.1-8.8-0.3c-17-2.6-24.7-14.9-20.5-32.2c0.4-1.5,0.8-2.9,1.2-4.4
		c-4.6,0.8-6.3-0.2-5.9-4.8c0.4-4.9,1.8-9.8,2.8-14.7c0.5,0.1,1,0.2,1.5,0.3c-0.7,3.1-1.6,6.1-1.8,9.2c-0.1,1.8,0.9,3.6,1.3,5.5
		c1.8-0.7,3.7-1.3,5.5-2c0.4-0.2,0.7-0.5,1.9-1.3c-1.1,3.3-2,5.7-2.8,8c-4.4,11.7-0.9,19.6,10.9,23.7c9.9,3.5,20.1,3,30.3,1.5
		c2.7-0.4,5.4-1.1,8.4-1.7c-1.6-17.1-3.7-33.8-8.9-50c-1.6-5-0.1-8.9,2.8-14c7.7,20.7,9.4,41.4,11.9,63.1c9.4-3.6,18.3-7,27.2-10.4
		c3.5-1.3,6.8-3.3,10.4-3.9c3.1-0.5,7.3-0.6,9.5,1.1c3.3,2.5,1.4,6.8-0.6,9.7c-3.1,4.8-6.4,9.6-10.4,13.6
		c-6.7,6.8-8.7,15.2-8.9,24.2c-0.2,10.2,7.5,16.5,17.5,14.3c14.6-3.1,26.1-11.8,37.1-21.2c0.8-0.7,1-2.9,0.5-4c-1-2.6-2.6-4.9-4-7.3
		c-4.5-7.6-1.7-15.1,6.8-17.9c0.6-0.2,1.1-0.5,1.7-0.6c5.5-0.8,7.7-3.3,7.5-9.5C338.4,241.6,348.3,230.4,359.1,228.5z M356.2,259.4
		c8.8,0.6,16.8-1.2,24.4-5.2c-2.6-4.8-5.8-6.5-17.6-10.3C360.8,249,358.6,254,356.2,259.4z M358,246c0.1-4.6-2.4-8-4.8-6.4
		c-3.7,2.4-7.2,5.3-10,8.6c-2.3,2.7,0.3,8.3,3.3,8.7C350.1,257.2,358,249.8,358,246z M434.6,354.8c4.6,1.9,8.2,3.5,12.7,5.4
		C445.1,351.9,441.2,350.3,434.6,354.8z M284.5,354.8c4.5,2,8.1,3.5,12.2,5.3C295.6,352.3,291.1,350.2,284.5,354.8z M395.9,354.8
		c-4.3-0.2-8.5-0.4-13.6-0.7C389.1,360.9,389.1,360.9,395.9,354.8z M326.5,357.2c0.2-0.6,0.4-1.2,0.5-1.7c-2.1-1.1-4-2.5-6.2-3
		c-1.1-0.2-2.6,1.3-3.9,2c1.1,0.9,2.1,2.3,3.3,2.6C322.2,357.5,324.4,357.2,326.5,357.2z"/>
	<path class="st0" d="M544.9,65.3c12.5-7,25.1-14,37.6-21.1c-0.1-0.5-0.2-1-0.4-1.5c-12.5-3.5-25.5-1.3-38.2-2.1
		c1.3-9.5,9.3-18.6,18.1-18.8c10.3-0.3,20.7,0.3,31,1.5c8.1,0.9,9.3,4.2,4.8,10.9c-3.3,4.9-6.9,9.5-10.5,14.2
		c-4.6,5.9-10.3,10-17.7,12c-8,2.1-16,4.6-23.9,6.9C545.4,66.6,545.2,66,544.9,65.3z"/>
	<path class="st0" d="M426.6,158.9c3.1,8.5,5.9,16,8.7,23.6c-0.4,0.2-0.7,0.4-1.1,0.6c-1.2-0.7-2.5-1.4-4.2-2.4
		c0.7,10,1.4,19.6,2.1,29.2c1.5,21.1,3,42.3,4.3,63.4c0.5,8.7-0.8,17.1-5.4,24.8c0-3.3,0.2-6.5,0-9.8c-1-19-2.1-38-3.3-57
		c-1.1-18.2-2.3-36.4-3.6-54.6c-0.4-5.3-2.6-10.6,1-15.6C425.3,160.8,425.6,160.5,426.6,158.9z"/>
	<path class="st0" d="M498.4,138.2c-1.8-1.4-3.6-2.8-5.5-4.4c-13.6,17.4-32.3,25.9-52.8,31.4c15.5-11.7,33.9-19,48.5-32.8
		c-1.9-1.5-3.8-2.8-5.4-4.3c-4.1-3.6-5-7-2.7-12c2.3-5.1,5.8-9.2,11.3-10.9c4.1-1.3,6.6,0.1,6.8,4.3c0.2,4.1-0.5,8.3-0.7,12.4
		c-0.1,1.2-0.2,2.9,0.5,3.7C503.7,131.7,503.7,131.8,498.4,138.2z M491.9,122.4c0.7-0.4,1.3-0.8,2-1.2c-1.1-2.4-1.8-5.1-3.4-7.1
		c-0.4-0.5-3.6,1.3-6.9,2.6C487.4,119.3,489.7,120.8,491.9,122.4z"/>
	<path class="st0" d="M447.1,77.3c1-5,2.2-8.6,7.4-10.5c25.3-9,50.5-18.5,75.8-27.8c1.1-0.4,2.3-0.6,4-1.1c-0.7,3.9-1.8,6.8-5.4,8.2
		c-26.5,10.3-53.1,20.5-79.6,30.8C448.8,77.1,448.3,77.1,447.1,77.3z"/>
	<path class="st0" d="M495.5,153.1c1.9,5.3,4.7,10.6,5.5,16.1c0.7,4.5,0,9.6-1.8,13.8c-2.4,5.6-8,5.5-11.8,0.6
		c-0.6-0.8-1.1-1.8-1.9-3.1c-1.2,2-1.9,4.4-3.5,5.4c-2.4,1.5-5.6,3.2-8.2,2.8c-2-0.3-4.2-3.3-5.1-5.6c-1-2.5-0.6-5.5-0.8-8.2
		c-0.2-2.8-0.1-5.2-2-8.1c-2.6-4,1.1-7,5.6-10.1c0.2,3.7,0.5,6.6,0.5,9.5c0,2.5-0.8,5-0.5,7.3c0.5,3.1,1.2,6.8,5.5,6.8
		c3.1,0,6.7-4.3,6.5-7.9c-0.2-3.1-1.2-6.1-1.4-9.1c-0.2-3,0.3-6,0.5-9c0.9-0.1,1.7-0.1,2.6-0.2c0.9,5.6,2,11.2,2.8,16.9
		c0.4,3.3,1.4,6.2,4.9,7c1.4,0.3,3.2-0.3,4.5-1.1c0.5-0.3,0-2.4-0.4-3.6c-1.4-3.9-3.6-7.6-4.3-11.7c-0.5-2.8,0.9-5.8,1.4-8.8
		C494.7,152.9,495.1,153,495.5,153.1z"/>
	<path class="st0" d="M543.7,317.7c5.4,3.8,10.4,7.2,15.2,10.8c0.9,0.7,1.6,2.9,1.2,3.9c-1.9,4.8-4.3,9.4-6.7,14.5
		c-6.2-4.2-11.6-7.6-16.8-11.4c-0.7-0.5-0.8-2.6-0.4-3.6C538.4,327.4,540.9,322.9,543.7,317.7z"/>
	<path class="st0" d="M375.8,153.4c5.8-3.3,11.7-6.6,17.5-10c-0.1-0.5-0.1-0.9-0.2-1.4c-6.1,0-12.2,0-18.5,0
		c2.5-8.5,4.5-10.2,11.9-10.1c4.2,0,8.4,0.2,12.5,0.7c3.7,0.4,4.6,2.4,2.5,5.8C395.8,148.2,390.6,151.5,375.8,153.4z"/>
	<path class="st0" d="M364.8,332.1c5.8-3.3,11.6-6.6,17.5-9.9c-0.1-0.5-0.1-0.9-0.2-1.4c-6.1-0.3-12.2-0.6-18.3-0.9
		c2.3-7.5,4.2-9.2,11.2-9.2c4.5,0,8.9,0.4,13.4,0.9c3.3,0.4,3.9,2.2,2.3,5.2C385.3,327.2,376.2,331.5,364.8,332.1z"/>
	<path class="st0" d="M362.1,299.7c6.2,2.1,12.3-1.1,18.6-1.7c-3.4,4.1-13.7,7.6-18.6,6.2c-3.1-0.9-3.9-4.1-1.3-7.1
		c1.8-2.1,4.3-3.5,6.5-5.2c1.3-1.1,2.5-2.3,3.8-3.4c-4-3.2-5.5-9.6-2.8-13.8c0.7-1.1,3.5-1.8,4.6-1.3c2.8,1.4,5.8,3.2,7.6,5.7
		c1.3,1.8,1.3,5.1,0.9,7.6c-0.5,3-3.3,1.8-5.3,1.7c-1,0-2.2,0.2-2.9,0.8C369.4,292.6,365.8,296.1,362.1,299.7z"/>
	<path class="st0" d="M214.4,219.3c1.1-1.9,2.1-3.6,3-5.3c9.9,4.1,10.5,5.8,4.7,13.6c-2.5-1.6-5-3.2-7.8-5c-1.1,1.8-2.2,3.6-3.6,5.7
		c-2.9-2-5.7-3.9-8.8-6c1.3-2.7,2.5-5.3,4-8.3C209,216,211.6,217.6,214.4,219.3z"/>
	<path class="st0" d="M378.8,172.6c3,2,5.4,3.6,8.1,5.3c1.1-1.8,2.1-3.5,3.1-5.1c10.8,4.7,10.6,5.9,4.6,13.4c-2.4-1.6-4.8-3.2-7.5-5
		c-1.2,1.9-2.3,3.7-3.6,5.8c-2.9-2-5.7-3.9-8.9-6.1C375.9,178.3,377.2,175.8,378.8,172.6z"/>
	<path class="st0" d="M217.5,190.4c-1.7,0.7-3.7,1-4.9,2.2c-6.6,6.6-14.8,10.3-23.8,12.3c7.9-5.1,15.8-10.1,23.7-15.2
		c-5.3-6.6-5-11,0.6-13.9c3-1.6,4.6-0.7,5,2.8c0.3,3-1.8,6.4,1.6,9c0.4,0.3-0.8,2.7-1.2,4.1C218.2,191.2,217.8,190.8,217.5,190.4z"
		/>
	<path class="st0" d="M322.4,220.4c-1.6,0.7-3.5,1.1-4.6,2.3c-6.5,6.6-14.5,10.2-23.5,12.2c7.8-5,15.6-10,23.5-15.1
		c-5.5-6.1-5.2-10.7,0.2-13.7c3.1-1.7,5.3-0.6,5.4,2.9c0.1,3-2.1,6.3,1.5,8.9c0.3,0.2-0.8,2.4-1.2,3.6
		C323.4,221.1,322.9,220.7,322.4,220.4z"/>
	<path class="st0" d="M331.4,174.4c7.7-5,15.4-9.9,23.3-14.9c-5.6-6.1-5.2-10.8,0.3-13.7c3-1.6,4.8-0.7,5.1,2.6
		c0.3,3.1-1.9,6.6,1.6,9.3c0.3,0.2-0.7,2.4-1.1,3.6c-0.3-0.4-0.6-0.7-0.9-1.1c-1.8,0.8-4,1.2-5.3,2.5
		C347.9,168.9,340.2,172.6,331.4,174.4z"/>
	<path class="st0" d="M203.1,188.7c-1.7,0.8-3.7,1.2-5,2.5c-6.5,6.5-14.5,10-23.4,12c7.8-5,15.7-10.1,23.7-15.2
		c-5.5-6-5.5-10-0.3-13.3c1.2-0.7,3-1.1,4.2-0.7c0.8,0.3,1.3,2.2,1.5,3.5c0.3,2.8-1.8,6,1.6,8.4c0.4,0.3-0.6,2.4-0.9,3.7
		C204,189.3,203.6,189,203.1,188.7z"/>
	<path class="st0" d="M303.9,216.5c-6.1-5.5-5.5-11.4,0.7-13.7c1.1-0.4,3.9,0.6,4.1,1.5c1.1,3.6-1.4,7.8,2,11.2
		c0.3,0.3-0.8,1.9-1.9,1.8c-1.8,0.8-4,1.3-5.3,2.6c-5.7,5.5-14.1,10.1-24.7,12.8C287.7,226.9,295.6,221.8,303.9,216.5z"/>
	<path class="st0" d="M373.9,398.2c5.6,5.3,8.1,1.2,11.1-1c0.4,0.3,0.7,0.6,1.1,0.9c-1.2,1.9-2.3,3.9-3.7,5.6
		c-2.6,3-5.6,5.7-8.1,8.9c-2.2,2.8-0.7,5,2.5,4.9c4.6,0,9.2-0.7,13.5-1.1c-2.8,4.2-11.7,7.2-16.3,4.8c-1.4-0.8-2.9-3.2-2.7-4.7
		c0.4-3.4,1.9-6.7,3-10.4c-3.8-4.4-2.2-11,4-13.8c0.8-0.3,2.4-0.3,2.8,0.2c0.5,0.7,0.5,2.1,0.2,2.9c-0.3,0.6-1.5,0.9-2.3,1.2
		C377.6,397.2,376.3,397.5,373.9,398.2z"/>
	<path class="st0" d="M435.2,142.9c-3.1,7.8-11.4,9.3-16.7,14.5c-0.4-0.3-0.8-0.5-1.2-0.8c0.9-1.8,1.7-3.6,2.7-5.6
		c-4.2-4.9-1.2-13.6,5.8-15.2c1-0.2,3.2,0.2,3.3,0.6c0.4,1.9,0.2,4,0.2,7c-3.5-3.1-5.8-2.8-7.7,0.3
		C424.2,146.4,424.2,146.4,435.2,142.9z"/>
	<path class="st0" d="M436.1,429.5c-1.3-7.7-3-15.4-3.6-23.2c-0.4-4.9,0.8-10,1.7-15c0.2-1,3.1-2.6,3.7-2.3c2.5,1.6,4.7,3.6,6.6,5.9
		c0.3,0.4-1.4,3.2-2.7,4.1c-2.4,1.6-6.5,2-7.6,4.2c-1,2,1.2,5.5,1.6,8.3c0.7,6,1,12,1.5,18.1C436.8,429.6,436.4,429.5,436.1,429.5z"
		/>
	<path class="st0" d="M257.4,432.6c-1.4-8.5-2.9-17-4.3-25.4c-0.1-0.5-0.1-0.9,0-1.4c0.6-3.6,1-7.3,2-10.7c0.4-1.4,3.1-3.4,3.6-3.1
		c2.6,1.5,5,3.4,6.8,5.7c0.4,0.4-1.7,3.9-3.2,4.6c-7.3,3.2-7,3-5.8,10.7c1,6.4,1.3,13,1.8,19.5C258.1,432.5,257.7,432.6,257.4,432.6
		z"/>
	<path class="st0" d="M442.6,105.1c-1.5,0.6-3,1.3-4.5,1.9c-13.2,5.1-26.4,10.2-40.5,14.7c1.1-1.5,2-3.7,3.5-4.3
		c13-5.1,26.2-9.8,39.3-14.7C441.1,103.5,441.9,104.3,442.6,105.1z"/>
	<path class="st0" d="M448.1,308.1c-1.1,1.1-2,2.7-3.3,3.2c-13.2,5.2-26.4,10.2-40.5,14.5c1.2-1.4,2.1-3.5,3.6-4
		c13-5.1,26.2-9.9,39.3-14.8C447.5,307.4,447.8,307.7,448.1,308.1z"/>
	<path class="st0" d="M386,173.7c-2.9-2-5.6-3.9-8.5-5.9c1.3-2.7,2.6-5.3,3.8-7.8C391.2,164.2,392,166.4,386,173.7z"/>
	<path class="st0" d="M260,322.8c1.2-7.3-1.6-12.9-6.5-17.9c-1-1-0.8-3.3-1.3-6.1C261.6,304.5,264.6,314.8,260,322.8z"/>
	<path class="st0" d="M222.1,359.9c-0.8,3.6-1.8,7.1-2.3,10.7c-0.2,1.3,0.8,2.8,1.2,4.2c1.3-0.5,2.6-0.9,4.1-1.5
		c-0.2,0.8-0.1,2.2-0.7,3c-1.2,1.4-2.8,2.3-4.2,3.5c-0.9-1.5-2.6-3-2.5-4.3c0.6-5.4,1.7-10.7,2.7-16
		C221,359.6,221.5,359.8,222.1,359.9z"/>
	<path class="st0" d="M568.5,175.5c-0.2,0.8-0.2,1.9-0.8,2.5c-1.2,1.4-2.7,2.5-4,3.7c-1-1.7-2.8-3.4-2.7-5c0.3-4.6,1.4-9.1,2.2-13.7
		c0.5,0.1,1,0.2,1.5,0.3c-0.6,3-1.4,5.9-1.7,8.9c-0.1,1.5,0.9,3.1,1.4,4.6c1.1-0.6,2.3-1.2,3.4-1.8c0.1,0,0.3-0.1,0.3,0
		C568.3,175,568.3,175.2,568.5,175.5z"/>
	<path class="st0" d="M188,288.6c0.4-3.1,1.8-5.7,5.2-4.7s2.7,4.3,1.4,6.6c-1.9,3.3-4.4,6.3-6.7,9.4c-0.4-0.3-0.8-0.6-1.2-0.9
		c1.4-1.9,3-3.6,4.2-5.6c0.7-1.2,0.9-2.8,1.3-4.2C190.8,289.1,189.5,288.8,188,288.6z"/>
	<path class="st0" d="M267.8,192.2c2.2-3.2,4.3-6.4,6.9-10.3c-2.7-0.3-4.1-0.5-5.7-0.7c0.3-0.9,0.4-2.1,1-2.6
		c1.2-0.9,2.9-2.1,4.2-1.9c1,0.2,2.1,2.4,2.1,3.8C276.5,184.5,272.8,189.4,267.8,192.2z"/>
	<path class="st0" d="M596.3,336.3c1.1-1.5,2.5-3,3.3-4.7c0.7-1.2,0.7-2.8,1.1-4.2c-1.2-0.2-2.5-0.4-4.7-0.7
		c1.3-1.6,2.4-3.4,3.9-4.5c0.6-0.4,3,0.2,3.1,0.7c0.5,1.8,1,4.1,0.3,5.6c-1.5,3.1-3.8,5.8-5.8,8.6
		C597,336.9,596.6,336.6,596.3,336.3z"/>
	<path class="st0" d="M487.2,395.6c-0.2,5.8-4.5,10.9-0.9,16.9c1.4-1,2.5-1.8,4.2-3c-0.5,1.8-0.5,3.2-1.2,4.2
		c-0.9,1.2-2.2,2.6-3.6,2.9c-0.7,0.2-2.6-1.7-2.8-2.8C482,407.4,483.5,401.5,487.2,395.6z"/>
</g>
</svg>
